<?xml version="1.0" encoding="UTF-8"?>
<svg id="_图层_1" data-name="图层 1" xmlns="http://www.w3.org/2000/svg" xmlns:xlink="http://www.w3.org/1999/xlink" viewBox="0 0 16 16">
  <defs>
    <style>
      .cls-1 {
        fill: none;
      }

      .cls-2 {
        fill: url(#_未命名的渐变);
      }

      .cls-3 {
        fill: url(#_未命名的渐变-2);
      }
    </style>
    <linearGradient id="_未命名的渐变" data-name="未命名的渐变" x1="7" y1="17" x2="7" y2="3" gradientTransform="translate(0 18) scale(1 -1)" gradientUnits="userSpaceOnUse">
      <stop offset="0" stop-color="#ff5f5f"/>
      <stop offset=".5" stop-color="#e1da5b"/>
      <stop offset="1" stop-color="#5fff97"/>
    </linearGradient>
    <linearGradient id="_未命名的渐变-2" data-name="未命名的渐变" x1="13.24" y1="6.79" x2="13.24" y2="15.11" gradientTransform="matrix(1,0,0,1,0,0)" xlink:href="#_未命名的渐变"/>
  </defs>
  <path class="cls-2" d="M13,2c0-.55-.45-1-1-1l-7.25,2c-.45.12-.77.53-.75,1v5.55c-1.35-.28-2.67.6-2.95,1.95s.6,2.67,1.95,2.95c1.35.28,2.67-.6,2.95-1.95.03-.16.05-.33.05-.5v-7.24l5-1.43v3.17l2-1v-3.5Z"/>
  <path class="cls-3" d="M14.86,10.44v2.36h-1.01v2.31h-2.25v-5.09c0-.57.1-1.06.3-1.47.25-.52.63-.94,1.13-1.27.51-.33,1.04-.49,1.59-.49h.24v2.36c-.05,0-.09,0-.11,0-.28,0-.51.09-.66.28-.15.19-.23.46-.23.81v.2h1.01Z"/>
  <rect class="cls-1" width="16" height="16"/>
  <rect class="cls-1" width="16" height="16"/>
</svg>